Coordinates
version=1
nRows=17
nColumns=36
inDegrees=yes

Units are S.I. units (second, meters, Newtons, ...)
If the header above contains a line with 'inDegrees', this indicates whether rotational values are in degrees (yes) or radians (no).

endheader
time	pelvis_tilt	pelvis_list	pelvis_rotation	pelvis_tx	pelvis_ty	pelvis_tz	hip_flexion_r	hip_adduction_r	hip_rotation_r	knee_angle_r	knee_angle_r_beta	ankle_angle_r	subtalar_angle_r	mtp_angle_r	hip_flexion_l	hip_adduction_l	hip_rotation_l	knee_angle_l	knee_angle_l_beta	ankle_angle_l	subtalar_angle_l	mtp_angle_l	lumbar_extension	lumbar_bending	lumbar_rotation	arm_flex_r	arm_add_r	arm_rot_r	elbow_flex_r	pro_sup_r	arm_flex_l	arm_add_l	arm_rot_l	elbow_flex_l	pro_sup_l
      3.90000000	    -11.71116839	     -2.89869587	      7.25613832	     -0.04776192	      1.14366115	      0.07956785	     13.47362993	      2.35375071	     -6.19426580	     15.12127435	      0.26391602	     13.04010843	    -16.95333166	     -7.49999987	     23.91782046	     -5.06683742	     -9.00125756	     30.12230782	      0.52573345	    -12.53052514	    -33.01940704	     -7.49999987	     -6.59152639	      4.00821713	     -7.40127742	     -5.78285569	    -16.84122002	     60.02257167	     10.52636764	     26.06524918	     -9.47983503	    -12.62265573	     61.60972201	     11.72512294	     40.41353169
      3.91666670	    -11.89089119	     -3.67405371	      7.14677046	     -0.04517261	      1.14375478	      0.08073203	     16.83643723	      2.97840321	     -5.32718643	     20.95328345	      0.36570379	     15.98393383	    -17.73070171	     -7.49999987	     28.26800432	     -5.89499115	     -5.66378639	     38.01882318	      0.66355364	     -7.21088613	    -30.63164489	     -7.49999987	     -7.02312475	      4.70592820	     -6.93109166	     -4.43930646	    -16.43541239	     60.62424271	     11.86925468	     26.58322297	     -7.76170155	    -12.01701071	     61.67287020	     12.48590750	     40.61963347
      3.93333330	    -11.50699860	     -3.91163996	      6.99957859	     -0.03970602	      1.13422674	      0.08047710	     20.36970114	      3.24200039	     -3.54886280	     29.27088871	      0.51087338	     19.19450014	    -19.53917286	     -7.49999987	     31.27692625	     -6.39968455	     -3.42474462	     45.35263749	      0.79155285	      0.06179775	    -25.91066519	     -7.49999987	     -8.10802135	      4.89554317	     -6.39765113	     -2.76107834	    -15.65310903	     61.52963296	     13.02329642	     26.96331005	     -5.80518475	    -11.47268002	     61.57827148	     12.96965392	     40.84265318
      3.95000000	    -10.20379591	     -3.71115807	      6.72998475	     -0.03397517	      1.11971002	      0.08078767	     22.55228213	      3.42329625	     -2.02603886	     37.64872127	      0.65709415	     23.35595097	    -21.30253441	     -7.49999987	     32.66683779	     -6.87414967	     -1.96505645	     52.19563057	      0.91098561	      7.79113562	    -19.37667240	     -7.49999987	    -10.18497862	      4.64201349	     -5.66167956	     -0.87739469	    -14.86158265	     61.42099867	     14.51513900	     29.21727700	     -3.78861359	    -11.32712381	     60.68152435	     14.08891735	     42.11673687
      3.96666670	     -8.80087936	     -3.34120107	      6.80454030	     -0.02907817	      1.11258013	      0.08132384	     23.73731867	      3.54615975	     -1.16436998	     44.90448222	      0.78373106	     25.48929536	    -21.81649729	     -7.49999987	     33.18066650	     -6.97757896	     -0.95274685	     57.21367382	      0.99856699	     13.18241140	    -14.49234815	     -7.49999987	    -12.50916478	      4.23403284	     -5.33365796	      1.73688442	    -13.66490844	     61.60619548	     15.56907348	     29.41711910	     -1.28533941	    -11.16342417	     59.98370906	     14.75726648	     42.32678539
      3.98333330	     -7.13110604	     -2.68738909	      7.22151521	     -0.01428081	      1.09980618	      0.07708079	     24.00104513	      2.96330292	     -0.90418915	     51.46061697	      0.89815720	     28.55376815	    -22.12413960	     -7.49999987	     32.33642067	     -6.76598571	     -0.42279675	     61.22348521	      1.06855140	     17.24278105	    -11.62271607	     -7.49999987	    -14.66840667	      3.77623061	     -5.31892805	      4.11518656	    -12.61335981	     60.29760011	     17.00842144	     32.45127537	      0.76442912	    -11.19182930	     55.07517122	     16.49830942	     45.75684763
      4.00000000	     -5.57653178	     -1.93635342	      7.82287335	      0.00679433	      1.08623862	      0.07518946	     22.70298183	      2.26702230	     -0.85957506	     55.58149596	      0.97008011	     32.24076166	    -21.07521853	     -7.49999987	     30.14946511	     -6.39485603	     -0.13198281	     63.59413008	      1.10992695	     22.40469825	     -8.45405177	     -7.49999987	    -15.79109021	      3.17529011	     -5.27623797	      6.00983856	    -11.73378743	     59.71983371	     18.85600483	     33.36031038	      3.04643554	    -11.48406019	     54.60263134	     18.18916788	     46.43008189
      4.01666670	     -3.88175800	     -1.11577177	      8.48072605	      0.02471342	      1.07830932	      0.07215529	     19.43866461	      1.59232013	     -1.09970263	     57.02933813	      0.99534972	     36.69414829	    -18.31041894	     -7.49999987	     26.89868465	     -5.84667837	      0.24729821	     65.02705522	      1.13493622	     26.97924834	     -5.77348197	     -7.49999987	    -16.71038289	      2.68992769	     -5.16328396	      6.70088763	    -11.07581757	     52.11286701	     21.62637944	     43.30929318	      4.73649485	    -11.81281174	     47.96519977	     21.27069754	     54.49101274
      4.03333330	     -2.87668416	     -0.48709948	      8.93756001	      0.03356116	      1.07491280	      0.07408440	     16.43079109	      1.24765632	     -1.33228436	     56.81094376	      0.99153802	     39.52342674	    -16.73347551	     -7.49999987	     24.26288125	     -5.44855766	      0.61286642	     64.72677925	      1.12969541	     30.57276038	     -3.24014647	     -7.49999987	    -16.87942890	      2.22341226	     -4.83185801	      7.64522260	    -10.84820264	     46.40373581	     25.81250728	     50.45782876	      6.29772874	    -12.54134466	     41.27687414	     26.57693661	     60.75561096
      4.05000000	     -3.18094373	     -0.17402497	      9.14172870	      0.03847928	      1.06211390	      0.07579013	     15.38293669	      1.24940736	     -1.05898493	     56.21728679	      0.98117675	     43.38809496	    -14.00151752	     -7.49999987	     23.48534502	     -5.23740344	      1.11894193	     65.10629584	      1.13631923	     34.38083543	     -1.01949944	     -7.49999987	    -15.52674455	      1.77349709	     -4.53606581	      8.32263192	    -11.23288999	     40.25841297	     32.94907260	     58.09877709	      7.00158140	    -13.77906520	     31.82773985	     36.70008981	     69.70187333
      4.06666670	     -4.68910618	     -0.21667137	      9.06119064	      0.03744405	      1.05449154	      0.07485821	     16.46476330	      1.44478122	     -0.34510426	     56.32182234	      0.98300124	     46.15934513	    -12.40242616	     -7.49999987	     24.85814475	     -5.02582084	      1.39129705	     66.02924631	      1.15242775	     36.16797900	     -0.11920354	     -7.49999987	    -13.21894607	      1.48275643	     -4.26303074	      9.21971629	    -12.87263547	     35.37609100	     46.15967585	     59.51304902	      7.88029860	    -15.89585565	     25.63459265	     52.54308880	     70.96392797
      4.08333330	     -6.39889992	     -0.11726770	      8.47729913	      0.05247477	      1.06323385	      0.07557358	     16.74349392	      1.23408500	      0.43017885	     55.19602714	      0.96335241	     46.76435132	    -11.28115576	     -7.49999987	     24.97995468	     -4.84511354	      0.92213268	     64.62339461	      1.12789101	     37.02563806	      1.34275655	     -7.49999987	    -10.53737726	      0.99587044	     -4.60837486	      9.76906860	    -13.93350987	     29.57158112	     62.79495357	     72.54038959	      7.14177075	    -17.17856750	     16.83823546	     71.18119723	     81.54394593
      4.10000000	     -7.73629396	      0.31281919	      7.91160993	      0.07122443	      1.08099806	      0.07242707	     15.20688436	      0.53524658	      0.56257041	     51.80136078	      0.90410430	     45.25759916	     -9.73587123	     -7.49999987	     23.52882748	     -4.23571441	      0.05554869	     60.60829726	      1.05781434	     36.36245805	      1.72131242	     -7.49999987	     -7.93853579	      0.57551481	     -4.33680013	      9.74074572	    -15.37815962	     26.46262747	     80.09847690	     73.43963519	      6.90060831	    -18.98335580	     14.70673984	     88.70663827	     80.95323739
      4.11666670	     -8.24785766	      0.89580414	      7.47951942	      0.09738440	      1.10336936	      0.07198030	     11.93333793	     -0.48978457	      0.10669201	     46.85502502	      0.81777446	     41.54109611	     -9.21954322	     -7.49999987	     19.88536674	     -3.55888160	     -1.20097526	     54.82256685	      0.95683430	     34.40097064	      3.03943730	     -7.49999987	     -5.89992720	      0.00787513	     -4.33788460	      9.36461994	    -15.89652599	     24.03762995	     91.59638388	     83.96825943	      5.65531355	    -20.49311659	     13.72954338	    101.65033420	     86.90836878
      4.13333330	     -8.91621353	      1.54032601	      7.07213692	      0.11881710	      1.11806653	      0.07009872	      8.19524251	     -1.70912741	     -1.03797687	     41.01617778	      0.71586735	     35.83529753	     -8.18968572	     -7.49999987	     15.83103000	     -3.02221405	     -3.16487744	     48.17647325	      0.84083808	     29.44529162	      2.79760745	     -7.49999987	     -3.32447276	     -0.85824319	     -4.73959290	      9.42146388	    -16.39935643	     22.79008472	     97.51159170	     89.01939460	      3.04863021	    -21.53116969	     12.28016610	    111.03155153	     90.35196069
      4.15000000	     -9.33516987	      2.32786685	      6.70547177	      0.14714579	      1.13766895	      0.06793155	      3.97820084	     -3.10922887	     -2.69694269	     34.56756506	      0.60331782	     29.15646146	     -6.22437403	     -7.49999987	     11.69287117	     -2.06493206	     -4.73337326	     41.01577476	      0.71586031	     25.44265236	      2.84791896	     -7.49999987	     -0.73441879	     -2.07871006	     -5.66298442	      8.75838309	    -16.81892175	     21.87880611	    101.00860509	     93.09272843	     -1.98872892	    -22.53356081	      9.88336278	    119.43711760	     92.90862088
      4.16666670	     -9.78966534	      2.52736221	      6.72097462	      0.16481414	      1.15567980	      0.06504262	      1.39432906	     -4.05705352	     -5.18972656	     29.22408055	      0.51005643	     22.33869465	     -4.54034640	     -7.49999987	      8.16889085	     -1.73118590	     -6.07185280	     35.23560725	      0.61497736	     18.95070637	      3.55414578	     -7.49999987	      1.43054630	     -2.65752619	     -5.66788642	      7.47834306	    -17.99364788	     20.57644459	    104.04587338	     94.16791139	     -6.76759988	    -21.38732569	      7.85921048	    125.94960458	     93.67806299
